<!-- Generated by IcoMoon.io -->
<svg version="1.1" xmlns="http://www.w3.org/2000/svg" width="512" height="512" viewBox="0 0 512 512">
<title></title>
<g id="icomoon-ignore">
</g>
<path d="M416 128l64-64v-32h-32l-64 64zM512 160v32h-64v-32zM352 288v64h-32v-64zM448 320h32v-32l-64-64-32 32zM352 0v64h-32v-64zM224 160v32h-64v-32zM224 32h-32v32l64 64 32-32zM71 505l318.059-318.059c9.334-9.334 9.334-24.607 0-33.941l-30.059-30.059c-9.334-9.334-24.607-9.334-33.941 0l-318.059 318.059c-9.334 9.334-9.334 24.607 0 33.941l30.059 30.059c9.334 9.334 24.607 9.334 33.941 0zM240 240l96-96 32 32-96 96-32-32z"></path>
</svg>
